<?xml version="1.0" encoding="UTF-8" standalone="no"?>
<svg viewBox="0 0 40 40" xmlns="http://www.w3.org/2000/svg" xmlns:xlink="http://www.w3.org/1999/xlink">

  <circle cx="20" cy="20" r="18" fill="#00BFFF"/>

  <path fill="none" stroke="#798081"
        d="M 20 2.2
                A 24 22.5 0 0 0 11.2 14.2
                M 11.7 27
                A 24 22.5 0 0 0 20 37.6

                A 24 22.5 0 0 0 28.2 27.1
                M 28.8 14.2
                A 24 22.5 0 0 0 20 2.2

                M 4.3 10.7
                a 24 22.5 0 0 0 31.4 0
                M 2 20.6
                a 24 22.5 0 0 0 36 0

"/>

  <path id="www" fill="none" d="M 5.4 21.4 a 24 22.5 0 0 0 29.2 0 " />

  <text font-size="12">
    <textPath xlink:href="#www" fill="#798081">
      w w w
    </textPath>
  </text>

  <circle cx="20" cy="20" r="18" fill="none"  stroke-width="0.7" stroke="#798081"/>

</svg>