<?xml version="1.0" encoding="UTF-8" standalone="no"?>
<svg viewBox="0 0 13 13" xmlns="http://www.w3.org/2000/svg" xmlns:xlink="http://www.w3.org/1999/xlink">

    <circle cx="6.5" cy="6.5" r="6" fill="#6E6E6E"/>
    <path fill="none" stroke="#F2F2F2" stroke-width="0.3"
          d="M 6.5 0.5
                A 8 7.5 0 0 0 3.7 4.5
                m 0 4.4
                A 8 7.5 0 0 0 6.5 12.5

                A 8 7.5 0 0 0 9.4 8.9
                m 0 -4.4
                A 8 7.5 0 0 0 6.5 0.5

                M 1.5 3.2
                a 8 7.5 0 0 0 10.1 0
                M 0.5 6.8
                a 8 7.5 0 0 0 12.1 0
    "/>

    <defs>
        <path id="www" d="M 1.4 6.5 a 8 7.5 0 0 0 10.2 0 " />
    </defs>

    <text font-size="4" >
        <textPath xlink:href="#www" fill="#F2F2F2">
            w w w
        </textPath>
    </text>
</svg>
